<svg width="32" height="32" viewBox="0 0 32 32" fill="none" xmlns="http://www.w3.org/2000/svg">
  <rect width="32" height="32" rx="6" fill="#0C0C0C"/>
  <g transform="translate(4,6) scale(0.087)">
    <path d="M10.1417 57.9795L38.5394 10.4868C38.72 10.1849 39.0459 10 39.3977 10H236.759C237.113 10 237.441 10.1872 237.621 10.4922L265.026 56.9829C265.213 57.3012 265.21 57.6969 265.018 58.0122L166.623 219.021C166.441 219.319 166.118 219.5 165.77 219.5H109.39C109.042 219.5 108.72 219.32 108.538 219.024L10.1481 59.0165C9.95292 58.6991 9.95045 58.2994 10.1417 57.9795Z" stroke="#FF0000" stroke-width="20"/>
    <path d="M86.1446 82.4238L97.2299 63.9848C97.4107 63.684 97.736 63.5 98.0869 63.5H176.973C177.326 63.5 177.653 63.6863 177.833 63.9901L188.523 82.0262C188.712 82.3455 188.709 82.7433 188.515 83.0595L149.213 147.024C149.031 147.32 148.709 147.5 148.361 147.5H126.298C125.951 147.5 125.63 147.321 125.447 147.026L86.1511 83.4649C85.9542 83.1464 85.9517 82.7447 86.1446 82.4238Z" stroke="#FF0000" stroke-width="10"/>
  </g>
</svg>
